<svg width="640" height="640" viewBox="0 0 640 640" fill="none" xmlns="http://www.w3.org/2000/svg">
<path d="M145 276.5V549.499H203.361V588.5L232.251 566.465L261.099 588.497V549.499H494V276.5H145ZM309.806 530H164.389V295.999H309.806V530ZM474.612 530H329.195V295.999H474.612V530Z" fill="#419423"/>
<path d="M436.795 413.5L392.488 464.497L376.615 457.383L367 459.88L394.495 479.5L440 433.121L436.795 413.5Z" fill="#419423"/>
<path d="M229.798 486.5H246.016V470.973H229.798V486.5ZM210 432.289H225.676C225.676 429.316 226.55 426.451 228.299 423.693C230.048 420.935 233.016 419.556 237.202 419.556C241.458 419.556 244.389 420.675 245.994 422.914C247.6 425.152 248.403 427.633 248.402 430.355C248.402 432.719 247.681 434.886 246.24 436.856C245.446 438.003 244.4 439.059 243.103 440.026L239.154 443.088C235.261 446.097 232.845 448.756 231.908 451.067C230.971 453.377 230.394 457.559 230.177 463.612H244.877C244.912 460.747 245.147 458.634 245.58 457.272C246.265 455.123 247.654 453.243 249.746 451.631L253.585 448.676C257.481 445.667 260.114 443.196 261.483 441.262C263.828 438.074 265 434.152 265 429.495C265 421.902 262.297 416.171 256.891 412.303C251.485 408.434 244.696 406.5 236.524 406.5C230.304 406.5 225.061 407.861 220.794 410.584C214.032 414.846 210.434 422.082 210 432.289Z" fill="#419423"/>
<path d="M319.5 52L39 158.42L319.5 264.836L600 158.42L319.5 52ZM70.1667 183.459V250.948C66.3727 254.385 63.932 259.302 63.932 264.84C63.932 275.212 72.3028 283.618 82.6307 283.618C92.959 283.618 101.329 275.212 101.329 264.84C101.329 259.302 98.8936 254.39 95.0948 250.948V192.85L70.1615 183.459L70.1667 183.459ZM144.968 211.824V302.398C144.968 328.603 222.809 365 319.509 365C416.208 365 494.049 328.608 494.049 302.398V211.824L323.988 276.382V276.377C321.102 277.493 317.907 277.493 315.027 276.377L144.968 211.824Z" fill="#419423"/>
</svg>
